<svg width="848" height="294" viewBox="0 0 848 294" fill="none" xmlns="http://www.w3.org/2000/svg">
<g filter="url(#filter0_d_2_32)">
<path d="M413.079 49.5009C498.279 140.701 361.746 198.822 278.579 216.322C500.379 174 571.579 128.64 585.579 86.8199C599.579 45 498.093 40.9511 413.079 49.5009Z" fill="url(#paint0_linear_2_32)"/>
</g>
<g filter="url(#filter1_d_2_32)">
<path d="M293.58 0C125.58 73 208.579 269 293.58 284.5C226.579 295 182.079 236 182.079 236C182.079 236 16.5792 246.5 5.57954 213C-5.42014 179.5 40.7783 154.766 152.08 111.5C161.667 61.2358 211.962 0.108751 293.58 0Z" fill="url(#paint1_linear_2_32)"/>
</g>
<g filter="url(#filter2_d_2_32)">
<path d="M339.114 110.75H329.159C328.977 109.462 328.606 108.318 328.045 107.318C327.485 106.303 326.765 105.439 325.886 104.727C325.008 104.015 323.992 103.47 322.841 103.091C321.705 102.712 320.47 102.523 319.136 102.523C316.727 102.523 314.629 103.121 312.841 104.318C311.053 105.5 309.667 107.227 308.682 109.5C307.697 111.758 307.205 114.5 307.205 117.727C307.205 121.045 307.697 123.833 308.682 126.091C309.682 128.348 311.076 130.053 312.864 131.205C314.652 132.356 316.72 132.932 319.068 132.932C320.386 132.932 321.606 132.758 322.727 132.409C323.864 132.061 324.871 131.553 325.75 130.886C326.629 130.205 327.356 129.379 327.932 128.409C328.523 127.439 328.932 126.333 329.159 125.091L339.114 125.136C338.856 127.273 338.212 129.333 337.182 131.318C336.167 133.288 334.795 135.053 333.068 136.614C331.356 138.159 329.311 139.386 326.932 140.295C324.568 141.189 321.894 141.636 318.909 141.636C314.758 141.636 311.045 140.697 307.773 138.818C304.515 136.939 301.939 134.22 300.045 130.659C298.167 127.098 297.227 122.788 297.227 117.727C297.227 112.652 298.182 108.333 300.091 104.773C302 101.212 304.591 98.5 307.864 96.6364C311.136 94.7576 314.818 93.8182 318.909 93.8182C321.606 93.8182 324.106 94.197 326.409 94.9545C328.727 95.7121 330.78 96.8182 332.568 98.2727C334.356 99.7121 335.811 101.477 336.932 103.568C338.068 105.659 338.795 108.053 339.114 110.75ZM388.943 117.727C388.943 122.803 387.981 127.121 386.057 130.682C384.148 134.242 381.542 136.962 378.239 138.841C374.951 140.705 371.254 141.636 367.148 141.636C363.011 141.636 359.299 140.697 356.011 138.818C352.723 136.939 350.125 134.22 348.216 130.659C346.307 127.098 345.352 122.788 345.352 117.727C345.352 112.652 346.307 108.333 348.216 104.773C350.125 101.212 352.723 98.5 356.011 96.6364C359.299 94.7576 363.011 93.8182 367.148 93.8182C371.254 93.8182 374.951 94.7576 378.239 96.6364C381.542 98.5 384.148 101.212 386.057 104.773C387.981 108.333 388.943 112.652 388.943 117.727ZM378.966 117.727C378.966 114.439 378.473 111.667 377.489 109.409C376.519 107.152 375.148 105.439 373.375 104.273C371.602 103.106 369.527 102.523 367.148 102.523C364.769 102.523 362.693 103.106 360.92 104.273C359.148 105.439 357.769 107.152 356.784 109.409C355.814 111.667 355.33 114.439 355.33 117.727C355.33 121.015 355.814 123.788 356.784 126.045C357.769 128.303 359.148 130.015 360.92 131.182C362.693 132.348 364.769 132.932 367.148 132.932C369.527 132.932 371.602 132.348 373.375 131.182C375.148 130.015 376.519 128.303 377.489 126.045C378.473 123.788 378.966 121.015 378.966 117.727ZM435.165 94.4545V141H426.665L406.415 111.705H406.074V141H396.233V94.4545H404.869L424.96 123.727H425.369V94.4545H435.165ZM468.545 107.841C468.364 106.008 467.583 104.583 466.205 103.568C464.826 102.553 462.955 102.045 460.591 102.045C458.985 102.045 457.629 102.273 456.523 102.727C455.417 103.167 454.568 103.78 453.977 104.568C453.402 105.356 453.114 106.25 453.114 107.25C453.083 108.083 453.258 108.811 453.636 109.432C454.03 110.053 454.568 110.591 455.25 111.045C455.932 111.485 456.72 111.871 457.614 112.205C458.508 112.523 459.462 112.795 460.477 113.023L464.659 114.023C466.689 114.477 468.553 115.083 470.25 115.841C471.947 116.598 473.417 117.53 474.659 118.636C475.902 119.742 476.864 121.045 477.545 122.545C478.242 124.045 478.598 125.765 478.614 127.705C478.598 130.553 477.871 133.023 476.432 135.114C475.008 137.189 472.947 138.803 470.25 139.955C467.568 141.091 464.333 141.659 460.545 141.659C456.788 141.659 453.515 141.083 450.727 139.932C447.955 138.78 445.788 137.076 444.227 134.818C442.682 132.545 441.871 129.735 441.795 126.386H451.318C451.424 127.947 451.871 129.25 452.659 130.295C453.462 131.326 454.53 132.106 455.864 132.636C457.212 133.152 458.735 133.409 460.432 133.409C462.098 133.409 463.545 133.167 464.773 132.682C466.015 132.197 466.977 131.523 467.659 130.659C468.341 129.795 468.682 128.803 468.682 127.682C468.682 126.636 468.371 125.758 467.75 125.045C467.144 124.333 466.25 123.727 465.068 123.227C463.902 122.727 462.47 122.273 460.773 121.864L455.705 120.591C451.78 119.636 448.682 118.144 446.409 116.114C444.136 114.083 443.008 111.348 443.023 107.909C443.008 105.091 443.758 102.629 445.273 100.523C446.803 98.4167 448.902 96.7727 451.568 95.5909C454.235 94.4091 457.265 93.8182 460.659 93.8182C464.114 93.8182 467.129 94.4091 469.705 95.5909C472.295 96.7727 474.311 98.4167 475.75 100.523C477.189 102.629 477.932 105.068 477.977 107.841H468.545ZM483.46 102.568V94.4545H521.688V102.568H507.438V141H497.71V102.568H483.46ZM527.983 141V94.4545H559.347V102.568H537.824V113.659H557.733V121.773H537.824V132.886H559.438V141H527.983ZM567.17 141V94.4545H577.011V132.886H596.966V141H567.17ZM603.483 141V94.4545H613.324V132.886H633.278V141H603.483ZM649.006 141H638.46L654.528 94.4545H667.21L683.256 141H672.71L661.051 105.091H660.688L649.006 141ZM648.347 122.705H673.256V130.386H648.347V122.705ZM681.398 102.568V94.4545H719.625V102.568H705.375V141H695.648V102.568H681.398ZM735.761 94.4545V141H725.92V94.4545H735.761ZM786.631 117.727C786.631 122.803 785.669 127.121 783.744 130.682C781.835 134.242 779.229 136.962 775.926 138.841C772.638 140.705 768.941 141.636 764.835 141.636C760.699 141.636 756.987 140.697 753.699 138.818C750.411 136.939 747.813 134.22 745.903 130.659C743.994 127.098 743.04 122.788 743.04 117.727C743.04 112.652 743.994 108.333 745.903 104.773C747.813 101.212 750.411 98.5 753.699 96.6364C756.987 94.7576 760.699 93.8182 764.835 93.8182C768.941 93.8182 772.638 94.7576 775.926 96.6364C779.229 98.5 781.835 101.212 783.744 104.773C785.669 108.333 786.631 112.652 786.631 117.727ZM776.653 117.727C776.653 114.439 776.161 111.667 775.176 109.409C774.206 107.152 772.835 105.439 771.062 104.273C769.29 103.106 767.214 102.523 764.835 102.523C762.456 102.523 760.381 103.106 758.608 104.273C756.835 105.439 755.456 107.152 754.472 109.409C753.502 111.667 753.017 114.439 753.017 117.727C753.017 121.015 753.502 123.788 754.472 126.045C755.456 128.303 756.835 130.015 758.608 131.182C760.381 132.348 762.456 132.932 764.835 132.932C767.214 132.932 769.29 132.348 771.062 131.182C772.835 130.015 774.206 128.303 775.176 126.045C776.161 123.788 776.653 121.015 776.653 117.727ZM832.852 94.4545V141H824.352L804.102 111.705H803.761V141H793.92V94.4545H802.557L822.648 123.727H823.057V94.4545H832.852ZM336.977 171.455V218H328.477L308.227 188.705H307.886V218H298.045V171.455H306.682L326.773 200.727H327.182V171.455H336.977ZM345.108 218V171.455H376.472V179.568H354.949V190.659H374.858V198.773H354.949V209.886H376.562V218H345.108ZM382.523 179.568V171.455H420.75V179.568H406.5V218H396.773V179.568H382.523ZM437.523 218L424.205 171.455H434.955L442.659 203.795H443.045L451.545 171.455H460.75L469.227 203.864H469.636L477.341 171.455H488.091L474.773 218H465.182L456.318 187.568H455.955L447.114 218H437.523ZM533.506 194.727C533.506 199.803 532.544 204.121 530.619 207.682C528.71 211.242 526.104 213.962 522.801 215.841C519.513 217.705 515.816 218.636 511.71 218.636C507.574 218.636 503.862 217.697 500.574 215.818C497.286 213.939 494.688 211.22 492.778 207.659C490.869 204.098 489.915 199.788 489.915 194.727C489.915 189.652 490.869 185.333 492.778 181.773C494.688 178.212 497.286 175.5 500.574 173.636C503.862 171.758 507.574 170.818 511.71 170.818C515.816 170.818 519.513 171.758 522.801 173.636C526.104 175.5 528.71 178.212 530.619 181.773C532.544 185.333 533.506 189.652 533.506 194.727ZM523.528 194.727C523.528 191.439 523.036 188.667 522.051 186.409C521.081 184.152 519.71 182.439 517.938 181.273C516.165 180.106 514.089 179.523 511.71 179.523C509.331 179.523 507.256 180.106 505.483 181.273C503.71 182.439 502.331 184.152 501.347 186.409C500.377 188.667 499.892 191.439 499.892 194.727C499.892 198.015 500.377 200.788 501.347 203.045C502.331 205.303 503.71 207.015 505.483 208.182C507.256 209.348 509.331 209.932 511.71 209.932C514.089 209.932 516.165 209.348 517.938 208.182C519.71 207.015 521.081 205.303 522.051 203.045C523.036 200.788 523.528 198.015 523.528 194.727ZM540.795 218V171.455H559.159C562.674 171.455 565.674 172.083 568.159 173.341C570.659 174.583 572.561 176.348 573.864 178.636C575.182 180.909 575.841 183.583 575.841 186.659C575.841 189.75 575.174 192.409 573.841 194.636C572.508 196.848 570.576 198.545 568.045 199.727C565.53 200.909 562.485 201.5 558.909 201.5H546.614V193.591H557.318C559.197 193.591 560.758 193.333 562 192.818C563.242 192.303 564.167 191.53 564.773 190.5C565.394 189.47 565.705 188.189 565.705 186.659C565.705 185.114 565.394 183.811 564.773 182.75C564.167 181.689 563.235 180.886 561.977 180.341C560.735 179.78 559.167 179.5 557.273 179.5H550.636V218H540.795ZM565.932 196.818L577.5 218H566.636L555.318 196.818H565.932ZM582.795 218V171.455H592.636V191.977H593.25L610 171.455H621.795L604.523 192.295L622 218H610.227L597.477 198.864L592.636 204.773V218H582.795ZM651.795 184.841C651.614 183.008 650.833 181.583 649.455 180.568C648.076 179.553 646.205 179.045 643.841 179.045C642.235 179.045 640.879 179.273 639.773 179.727C638.667 180.167 637.818 180.78 637.227 181.568C636.652 182.356 636.364 183.25 636.364 184.25C636.333 185.083 636.508 185.811 636.886 186.432C637.28 187.053 637.818 187.591 638.5 188.045C639.182 188.485 639.97 188.871 640.864 189.205C641.758 189.523 642.712 189.795 643.727 190.023L647.909 191.023C649.939 191.477 651.803 192.083 653.5 192.841C655.197 193.598 656.667 194.53 657.909 195.636C659.152 196.742 660.114 198.045 660.795 199.545C661.492 201.045 661.848 202.765 661.864 204.705C661.848 207.553 661.121 210.023 659.682 212.114C658.258 214.189 656.197 215.803 653.5 216.955C650.818 218.091 647.583 218.659 643.795 218.659C640.038 218.659 636.765 218.083 633.977 216.932C631.205 215.78 629.038 214.076 627.477 211.818C625.932 209.545 625.121 206.735 625.045 203.386H634.568C634.674 204.947 635.121 206.25 635.909 207.295C636.712 208.326 637.78 209.106 639.114 209.636C640.462 210.152 641.985 210.409 643.682 210.409C645.348 210.409 646.795 210.167 648.023 209.682C649.265 209.197 650.227 208.523 650.909 207.659C651.591 206.795 651.932 205.803 651.932 204.682C651.932 203.636 651.621 202.758 651 202.045C650.394 201.333 649.5 200.727 648.318 200.227C647.152 199.727 645.72 199.273 644.023 198.864L638.955 197.591C635.03 196.636 631.932 195.144 629.659 193.114C627.386 191.083 626.258 188.348 626.273 184.909C626.258 182.091 627.008 179.629 628.523 177.523C630.053 175.417 632.152 173.773 634.818 172.591C637.485 171.409 640.515 170.818 643.909 170.818C647.364 170.818 650.379 171.409 652.955 172.591C655.545 173.773 657.561 175.417 659 177.523C660.439 179.629 661.182 182.068 661.227 184.841H651.795Z" fill="#E3E1E1"/>
</g>
<defs>
<filter id="filter0_d_2_32" x="274.579" y="45.826" width="316.304" height="178.495" filterUnits="userSpaceOnUse" color-interpolation-filters="sRGB">
<feFlood flood-opacity="0" result="BackgroundImageFix"/>
<feColorMatrix in="SourceAlpha" type="matrix" values="0 0 0 0 0 0 0 0 0 0 0 0 0 0 0 0 0 0 127 0" result="hardAlpha"/>
<feOffset dy="4"/>
<feGaussianBlur stdDeviation="2"/>
<feComposite in2="hardAlpha" operator="out"/>
<feColorMatrix type="matrix" values="0 0 0 0 0 0 0 0 0 0 0 0 0 0 0 0 0 0 0.25 0"/>
<feBlend mode="normal" in2="BackgroundImageFix" result="effect1_dropShadow_2_32"/>
<feBlend mode="normal" in="SourceGraphic" in2="effect1_dropShadow_2_32" result="shape"/>
</filter>
<filter id="filter1_d_2_32" x="0" y="0" width="297.58" height="293.752" filterUnits="userSpaceOnUse" color-interpolation-filters="sRGB">
<feFlood flood-opacity="0" result="BackgroundImageFix"/>
<feColorMatrix in="SourceAlpha" type="matrix" values="0 0 0 0 0 0 0 0 0 0 0 0 0 0 0 0 0 0 127 0" result="hardAlpha"/>
<feOffset dy="4"/>
<feGaussianBlur stdDeviation="2"/>
<feComposite in2="hardAlpha" operator="out"/>
<feColorMatrix type="matrix" values="0 0 0 0 0 0 0 0 0 0 0 0 0 0 0 0 0 0 0.25 0"/>
<feBlend mode="normal" in2="BackgroundImageFix" result="effect1_dropShadow_2_32"/>
<feBlend mode="normal" in="SourceGraphic" in2="effect1_dropShadow_2_32" result="shape"/>
</filter>
<filter id="filter2_d_2_32" x="293.227" y="93.8182" width="543.625" height="132.841" filterUnits="userSpaceOnUse" color-interpolation-filters="sRGB">
<feFlood flood-opacity="0" result="BackgroundImageFix"/>
<feColorMatrix in="SourceAlpha" type="matrix" values="0 0 0 0 0 0 0 0 0 0 0 0 0 0 0 0 0 0 127 0" result="hardAlpha"/>
<feOffset dy="4"/>
<feGaussianBlur stdDeviation="2"/>
<feComposite in2="hardAlpha" operator="out"/>
<feColorMatrix type="matrix" values="0 0 0 0 0 0 0 0 0 0 0 0 0 0 0 0 0 0 0.25 0"/>
<feBlend mode="normal" in2="BackgroundImageFix" result="effect1_dropShadow_2_32"/>
<feBlend mode="normal" in="SourceGraphic" in2="effect1_dropShadow_2_32" result="shape"/>
</filter>
<linearGradient id="paint0_linear_2_32" x1="432.731" y1="45.826" x2="432.731" y2="216.322" gradientUnits="userSpaceOnUse">
<stop stop-color="#766FDD"/>
<stop offset="1" stop-color="#720C12"/>
</linearGradient>
<linearGradient id="paint1_linear_2_32" x1="149.439" y1="0" x2="149.439" y2="288.653" gradientUnits="userSpaceOnUse">
<stop stop-color="#766FDD"/>
<stop offset="0.93" stop-color="#720C12"/>
</linearGradient>
</defs>
</svg>
