<svg width="1288" height="294" viewBox="0 0 1288 294" fill="none" xmlns="http://www.w3.org/2000/svg">
<path d="M413.079 49.5009C498.279 140.701 361.746 198.822 278.579 216.322C500.379 174 571.579 128.64 585.579 86.8199C599.579 45 498.093 40.9511 413.079 49.5009Z" fill="url(#paint0_linear_2_33)"/>
<g filter="url(#filter0_d_2_33)">
<path d="M293.58 0C125.58 73 208.579 269 293.58 284.5C226.579 295 182.079 236 182.079 236C182.079 236 16.5792 246.5 5.57954 213C-5.42014 179.5 40.7783 154.766 152.08 111.5C161.667 61.2358 211.962 0.108751 293.58 0Z" fill="url(#paint1_linear_2_33)"/>
</g>
<g filter="url(#filter1_d_2_33)">
<path d="M340.034 112.409H327.216C327.125 111.348 326.882 110.386 326.488 109.523C326.11 108.659 325.579 107.917 324.897 107.295C324.231 106.659 323.42 106.174 322.466 105.841C321.511 105.492 320.428 105.318 319.216 105.318C317.094 105.318 315.299 105.833 313.829 106.864C312.375 107.894 311.269 109.371 310.511 111.295C309.769 113.22 309.397 115.53 309.397 118.227C309.397 121.076 309.776 123.462 310.534 125.386C311.306 127.295 312.42 128.735 313.875 129.705C315.329 130.659 317.079 131.136 319.125 131.136C320.291 131.136 321.337 130.992 322.261 130.705C323.185 130.402 323.988 129.97 324.67 129.409C325.352 128.848 325.905 128.174 326.329 127.386C326.769 126.583 327.064 125.682 327.216 124.682L340.034 124.773C339.882 126.742 339.329 128.75 338.375 130.795C337.42 132.826 336.064 134.705 334.306 136.432C332.564 138.144 330.405 139.523 327.829 140.568C325.253 141.614 322.261 142.136 318.852 142.136C314.579 142.136 310.746 141.22 307.352 139.386C303.973 137.553 301.299 134.856 299.329 131.295C297.375 127.735 296.397 123.379 296.397 118.227C296.397 113.045 297.397 108.682 299.397 105.136C301.397 101.576 304.094 98.8864 307.488 97.0682C310.882 95.2348 314.67 94.3182 318.852 94.3182C321.791 94.3182 324.496 94.7197 326.966 95.5227C329.435 96.3258 331.602 97.5 333.466 99.0455C335.329 100.576 336.829 102.462 337.966 104.705C339.102 106.947 339.791 109.515 340.034 112.409ZM390.858 118.227C390.858 123.409 389.85 127.78 387.835 131.341C385.82 134.886 383.1 137.576 379.676 139.409C376.252 141.227 372.433 142.136 368.221 142.136C363.979 142.136 360.146 141.22 356.721 139.386C353.312 137.538 350.6 134.841 348.585 131.295C346.585 127.735 345.585 123.379 345.585 118.227C345.585 113.045 346.585 108.682 348.585 105.136C350.6 101.576 353.312 98.8864 356.721 97.0682C360.146 95.2348 363.979 94.3182 368.221 94.3182C372.433 94.3182 376.252 95.2348 379.676 97.0682C383.1 98.8864 385.82 101.576 387.835 105.136C389.85 108.682 390.858 113.045 390.858 118.227ZM377.858 118.227C377.858 115.439 377.486 113.091 376.744 111.182C376.017 109.258 374.933 107.803 373.494 106.818C372.07 105.818 370.312 105.318 368.221 105.318C366.13 105.318 364.365 105.818 362.926 106.818C361.502 107.803 360.418 109.258 359.676 111.182C358.949 113.091 358.585 115.439 358.585 118.227C358.585 121.015 358.949 123.371 359.676 125.295C360.418 127.205 361.502 128.659 362.926 129.659C364.365 130.644 366.13 131.136 368.221 131.136C370.312 131.136 372.07 130.644 373.494 129.659C374.933 128.659 376.017 127.205 376.744 125.295C377.486 123.371 377.858 121.015 377.858 118.227ZM436.977 94.9545V141.5H426.431L409.613 117.045H409.341V141.5H396.704V94.9545H407.431L423.977 119.318H424.341V94.9545H436.977ZM468.045 109.5C467.924 107.985 467.356 106.803 466.341 105.955C465.341 105.106 463.818 104.682 461.772 104.682C460.469 104.682 459.401 104.841 458.568 105.159C457.75 105.462 457.144 105.879 456.75 106.409C456.356 106.939 456.151 107.545 456.136 108.227C456.106 108.788 456.204 109.295 456.431 109.75C456.674 110.189 457.053 110.591 457.568 110.955C458.083 111.303 458.742 111.621 459.545 111.909C460.348 112.197 461.303 112.455 462.409 112.682L466.227 113.5C468.803 114.045 471.007 114.765 472.841 115.659C474.674 116.553 476.174 117.606 477.341 118.818C478.507 120.015 479.363 121.364 479.909 122.864C480.469 124.364 480.757 126 480.772 127.773C480.757 130.833 479.992 133.424 478.477 135.545C476.962 137.667 474.795 139.28 471.977 140.386C469.174 141.492 465.803 142.045 461.863 142.045C457.818 142.045 454.288 141.447 451.272 140.25C448.272 139.053 445.939 137.212 444.272 134.727C442.621 132.227 441.788 129.03 441.772 125.136H453.772C453.848 126.561 454.204 127.758 454.841 128.727C455.477 129.697 456.371 130.432 457.522 130.932C458.689 131.432 460.075 131.682 461.681 131.682C463.03 131.682 464.159 131.515 465.068 131.182C465.977 130.848 466.666 130.386 467.136 129.795C467.606 129.205 467.848 128.53 467.863 127.773C467.848 127.061 467.613 126.439 467.159 125.909C466.719 125.364 465.992 124.879 464.977 124.455C463.962 124.015 462.591 123.606 460.863 123.227L456.227 122.227C452.106 121.333 448.856 119.841 446.477 117.75C444.113 115.644 442.939 112.773 442.954 109.136C442.939 106.182 443.727 103.598 445.318 101.386C446.924 99.1591 449.144 97.4242 451.977 96.1818C454.825 94.9394 458.091 94.3182 461.772 94.3182C465.53 94.3182 468.78 94.947 471.522 96.2045C474.265 97.4621 476.378 99.2348 477.863 101.523C479.363 103.795 480.121 106.455 480.136 109.5H468.045ZM484.306 105.136V94.9545H524.761V105.136H510.761V141.5H498.306V105.136H484.306ZM529.517 141.5V94.9545H563.062V105.136H542.153V113.136H561.335V123.318H542.153V131.318H562.971V141.5H529.517ZM569.329 141.5V94.9545H581.966V131.318H600.784V141.5H569.329ZM605.892 141.5V94.9545H618.528V131.318H637.346V141.5H605.892ZM654.545 141.5H640.909L656.272 94.9545H673.545L688.909 141.5H675.272L665.091 107.773H664.727L654.545 141.5ZM652 123.136H677.636V132.591H652V123.136ZM686.244 105.136V94.9545H726.699V105.136H712.699V141.5H700.244V105.136H686.244ZM744.091 94.9545V141.5H731.454V94.9545H744.091ZM795.17 118.227C795.17 123.409 794.163 127.78 792.147 131.341C790.132 134.886 787.413 137.576 783.988 139.409C780.564 141.227 776.746 142.136 772.534 142.136C768.291 142.136 764.458 141.22 761.034 139.386C757.625 137.538 754.913 134.841 752.897 131.295C750.897 127.735 749.897 123.379 749.897 118.227C749.897 113.045 750.897 108.682 752.897 105.136C754.913 101.576 757.625 98.8864 761.034 97.0682C764.458 95.2348 768.291 94.3182 772.534 94.3182C776.746 94.3182 780.564 95.2348 783.988 97.0682C787.413 98.8864 790.132 101.576 792.147 105.136C794.163 108.682 795.17 113.045 795.17 118.227ZM782.17 118.227C782.17 115.439 781.799 113.091 781.056 111.182C780.329 109.258 779.246 107.803 777.806 106.818C776.382 105.818 774.625 105.318 772.534 105.318C770.443 105.318 768.678 105.818 767.238 106.818C765.814 107.803 764.731 109.258 763.988 111.182C763.261 113.091 762.897 115.439 762.897 118.227C762.897 121.015 763.261 123.371 763.988 125.295C764.731 127.205 765.814 128.659 767.238 129.659C768.678 130.644 770.443 131.136 772.534 131.136C774.625 131.136 776.382 130.644 777.806 129.659C779.246 128.659 780.329 127.205 781.056 125.295C781.799 123.371 782.17 121.015 782.17 118.227ZM841.289 94.9545V141.5H830.744L813.926 117.045H813.653V141.5H801.017V94.9545H811.744L828.289 119.318H828.653V94.9545H841.289ZM336.852 171.955V218.5H326.306L309.488 194.045H309.216V218.5H296.579V171.955H307.306L323.852 196.318H324.216V171.955H336.852ZM342.829 218.5V171.955H376.375V182.136H355.466V190.136H374.647V200.318H355.466V208.318H376.284V218.5H342.829ZM381.369 182.136V171.955H421.824V182.136H407.824V218.5H395.369V182.136H381.369ZM438.397 218.5L424.67 171.955H438.761L445.125 200.591H445.488L453.034 171.955H464.125L471.67 200.682H472.034L478.397 171.955H492.488L478.761 218.5H466.67L458.761 192.5H458.397L450.488 218.5H438.397ZM538.733 195.227C538.733 200.409 537.725 204.78 535.71 208.341C533.695 211.886 530.975 214.576 527.551 216.409C524.127 218.227 520.308 219.136 516.096 219.136C511.854 219.136 508.021 218.22 504.596 216.386C501.187 214.538 498.475 211.841 496.46 208.295C494.46 204.735 493.46 200.379 493.46 195.227C493.46 190.045 494.46 185.682 496.46 182.136C498.475 178.576 501.187 175.886 504.596 174.068C508.021 172.235 511.854 171.318 516.096 171.318C520.308 171.318 524.127 172.235 527.551 174.068C530.975 175.886 533.695 178.576 535.71 182.136C537.725 185.682 538.733 190.045 538.733 195.227ZM525.733 195.227C525.733 192.439 525.361 190.091 524.619 188.182C523.892 186.258 522.808 184.803 521.369 183.818C519.945 182.818 518.187 182.318 516.096 182.318C514.005 182.318 512.24 182.818 510.801 183.818C509.377 184.803 508.293 186.258 507.551 188.182C506.824 190.091 506.46 192.439 506.46 195.227C506.46 198.015 506.824 200.371 507.551 202.295C508.293 204.205 509.377 205.659 510.801 206.659C512.24 207.644 514.005 208.136 516.096 208.136C518.187 208.136 519.945 207.644 521.369 206.659C522.808 205.659 523.892 204.205 524.619 202.295C525.361 200.371 525.733 198.015 525.733 195.227ZM544.579 218.5V171.955H564.67C568.125 171.955 571.147 172.583 573.738 173.841C576.329 175.098 578.344 176.909 579.784 179.273C581.223 181.636 581.943 184.47 581.943 187.773C581.943 191.106 581.2 193.917 579.716 196.205C578.246 198.492 576.178 200.22 573.511 201.386C570.86 202.553 567.761 203.136 564.216 203.136H552.216V193.318H561.67C563.155 193.318 564.42 193.136 565.466 192.773C566.526 192.394 567.337 191.795 567.897 190.977C568.473 190.159 568.761 189.091 568.761 187.773C568.761 186.439 568.473 185.356 567.897 184.523C567.337 183.674 566.526 183.053 565.466 182.659C564.42 182.25 563.155 182.045 561.67 182.045H557.216V218.5H544.579ZM571.852 197.136L583.488 218.5H569.761L558.397 197.136H571.852ZM587.329 218.5V171.955H599.966V190.773H600.602L614.602 171.955H629.329L613.602 192.682L629.693 218.5H614.602L604.147 201.045L599.966 206.5V218.5H587.329ZM657.545 186.5C657.424 184.985 656.856 183.803 655.841 182.955C654.841 182.106 653.318 181.682 651.272 181.682C649.969 181.682 648.901 181.841 648.068 182.159C647.25 182.462 646.644 182.879 646.25 183.409C645.856 183.939 645.651 184.545 645.636 185.227C645.606 185.788 645.704 186.295 645.931 186.75C646.174 187.189 646.553 187.591 647.068 187.955C647.583 188.303 648.242 188.621 649.045 188.909C649.848 189.197 650.803 189.455 651.909 189.682L655.727 190.5C658.303 191.045 660.507 191.765 662.341 192.659C664.174 193.553 665.674 194.606 666.841 195.818C668.007 197.015 668.863 198.364 669.409 199.864C669.969 201.364 670.257 203 670.272 204.773C670.257 207.833 669.492 210.424 667.977 212.545C666.462 214.667 664.295 216.28 661.477 217.386C658.674 218.492 655.303 219.045 651.363 219.045C647.318 219.045 643.788 218.447 640.772 217.25C637.772 216.053 635.439 214.212 633.772 211.727C632.121 209.227 631.288 206.03 631.272 202.136H643.272C643.348 203.561 643.704 204.758 644.341 205.727C644.977 206.697 645.871 207.432 647.022 207.932C648.189 208.432 649.575 208.682 651.181 208.682C652.53 208.682 653.659 208.515 654.568 208.182C655.477 207.848 656.166 207.386 656.636 206.795C657.106 206.205 657.348 205.53 657.363 204.773C657.348 204.061 657.113 203.439 656.659 202.909C656.219 202.364 655.492 201.879 654.477 201.455C653.462 201.015 652.091 200.606 650.363 200.227L645.727 199.227C641.606 198.333 638.356 196.841 635.977 194.75C633.613 192.644 632.439 189.773 632.454 186.136C632.439 183.182 633.227 180.598 634.818 178.386C636.424 176.159 638.644 174.424 641.477 173.182C644.325 171.939 647.591 171.318 651.272 171.318C655.03 171.318 658.28 171.947 661.022 173.205C663.765 174.462 665.878 176.235 667.363 178.523C668.863 180.795 669.621 183.455 669.636 186.5H657.545Z" fill="#1C1C1C"/>
</g>
<defs>
<filter id="filter0_d_2_33" x="0" y="0" width="297.58" height="293.752" filterUnits="userSpaceOnUse" color-interpolation-filters="sRGB">
<feFlood flood-opacity="0" result="BackgroundImageFix"/>
<feColorMatrix in="SourceAlpha" type="matrix" values="0 0 0 0 0 0 0 0 0 0 0 0 0 0 0 0 0 0 127 0" result="hardAlpha"/>
<feOffset dy="4"/>
<feGaussianBlur stdDeviation="2"/>
<feComposite in2="hardAlpha" operator="out"/>
<feColorMatrix type="matrix" values="0 0 0 0 0 0 0 0 0 0 0 0 0 0 0 0 0 0 0.25 0"/>
<feBlend mode="normal" in2="BackgroundImageFix" result="effect1_dropShadow_2_33"/>
<feBlend mode="normal" in="SourceGraphic" in2="effect1_dropShadow_2_33" result="shape"/>
</filter>
<filter id="filter1_d_2_33" x="292.397" y="94.3182" width="552.892" height="132.818" filterUnits="userSpaceOnUse" color-interpolation-filters="sRGB">
<feFlood flood-opacity="0" result="BackgroundImageFix"/>
<feColorMatrix in="SourceAlpha" type="matrix" values="0 0 0 0 0 0 0 0 0 0 0 0 0 0 0 0 0 0 127 0" result="hardAlpha"/>
<feOffset dy="4"/>
<feGaussianBlur stdDeviation="2"/>
<feComposite in2="hardAlpha" operator="out"/>
<feColorMatrix type="matrix" values="0 0 0 0 0 0 0 0 0 0 0 0 0 0 0 0 0 0 0.25 0"/>
<feBlend mode="normal" in2="BackgroundImageFix" result="effect1_dropShadow_2_33"/>
<feBlend mode="normal" in="SourceGraphic" in2="effect1_dropShadow_2_33" result="shape"/>
</filter>
<linearGradient id="paint0_linear_2_33" x1="432.731" y1="45.826" x2="432.731" y2="216.322" gradientUnits="userSpaceOnUse">
<stop stop-color="#766FDD"/>
<stop offset="1" stop-color="#720C12"/>
</linearGradient>
<linearGradient id="paint1_linear_2_33" x1="149.439" y1="0" x2="149.439" y2="288.653" gradientUnits="userSpaceOnUse">
<stop stop-color="#766FDD"/>
<stop offset="0.93" stop-color="#720C12"/>
</linearGradient>
</defs>
</svg>
